<svg width="780" height="220" xmlns="http://www.w3.org/2000/svg"><g><path d="M-95.05271254107356,-22.316372827626765L-99.61280512157828,109.71887650899589L50.52645741030574,56.673959866166115Z" fill="#51115e" stroke="#51115e"></path><path d="M-95.05271254107356,-22.316372827626765L50.52645741030574,56.673959866166115L34.127824674360454,-54.81783020310104Z" fill="#42004e" stroke="#42004e"></path><path d="M34.127824674360454,-54.81783020310104L50.52645741030574,56.673959866166115L217.92676413431764,-84.41147502977401Z" fill="#50125d" stroke="#50125d"></path><path d="M34.127824674360454,-54.81783020310104L217.92676413431764,-84.41147502977401L302.33424082398415,-98.09691835194826Z" fill="#472854" stroke="#472854"></path><path d="M217.92676413431764,-84.41147502977401L50.52645741030574,56.673959866166115L206.06896080542356,92.9199253115803Z" fill="#71277e" stroke="#71277e"></path><path d="M217.92676413431764,-84.41147502977401L206.06896080542356,92.9199253115803L300.64983065240085,58.37558490689844Z" fill="#7d408d" stroke="#7d408d"></path><path d="M217.92676413431764,-84.41147502977401L300.64983065240085,58.37558490689844L302.33424082398415,-98.09691835194826Z" fill="#663f73" stroke="#663f73"></path><path d="M302.33424082398415,-98.09691835194826L300.64983065240085,58.37558490689844L397.357792458497,-15.356505909003317Z" fill="#7a4c87" stroke="#7a4c87"></path><path d="M302.33424082398415,-98.09691835194826L397.357792458497,-15.356505909003317L515.0302023719996,-36.626753667369485Z" fill="#775b81" stroke="#775b81"></path><path d="M302.33424082398415,-98.09691835194826L515.0302023719996,-36.626753667369485L666.4762342255563,-59.63323858100921Z" fill="#7c6b82" stroke="#7c6b82"></path><path d="M302.33424082398415,-98.09691835194826L666.4762342255563,-59.63323858100921L1156.1373316543177,-109.90105542819947Z" fill="#576f57" stroke="#576f57"></path><path d="M397.357792458497,-15.356505909003317L300.64983065240085,58.37558490689844L421.7819578759372,53.62286664545536Z" fill="#9760a4" stroke="#9760a4"></path><path d="M397.357792458497,-15.356505909003317L421.7819578759372,53.62286664545536L515.0302023719996,-36.626753667369485Z" fill="#94629d" stroke="#94629d"></path><path d="M515.0302023719996,-36.626753667369485L421.7819578759372,53.62286664545536L563.0427279369906,16.115506845526397Z" fill="#9e70a4" stroke="#9e70a4"></path><path d="M515.0302023719996,-36.626753667369485L563.0427279369906,16.115506845526397L666.4762342255563,-59.63323858100921Z" fill="#88758c" stroke="#88758c"></path><path d="M666.4762342255563,-59.63323858100921L563.0427279369906,16.115506845526397L679.8685422539711,68.66658515296876Z" fill="#907994" stroke="#907994"></path><path d="M666.4762342255563,-59.63323858100921L679.8685422539711,68.66658515296876L740.3235785383731,-59.386718100868165Z" fill="#78707b" stroke="#78707b"></path><path d="M666.4762342255563,-59.63323858100921L740.3235785383731,-59.386718100868165L1156.1373316543177,-109.90105542819947Z" fill="#2f5639" stroke="#2f5639"></path><path d="M740.3235785383731,-59.386718100868165L679.8685422539711,68.66658515296876L815.8724280726165,43.86685331352055Z" fill="#7c7080" stroke="#7c7080"></path><path d="M740.3235785383731,-59.386718100868165L815.8724280726165,43.86685331352055L877.2266292478889,-23.21525019593537Z" fill="#595e61" stroke="#595e61"></path><path d="M740.3235785383731,-59.386718100868165L877.2266292478889,-23.21525019593537L1044.5591779239476,-75.96056604757905Z" fill="#314f3e" stroke="#314f3e"></path><path d="M740.3235785383731,-59.386718100868165L1044.5591779239476,-75.96056604757905L1156.1373316543177,-109.90105542819947Z" fill="#0e3a21" stroke="#0e3a21"></path><path d="M877.2266292478889,-23.21525019593537L815.8724280726165,43.86685331352055L880.3855009609833,16.863172934390604Z" fill="#565a62" stroke="#565a62"></path><path d="M877.2266292478889,-23.21525019593537L880.3855009609833,16.863172934390604L1044.5591779239476,-75.96056604757905Z" fill="#304441" stroke="#304441"></path><path d="M1044.5591779239476,-75.96056604757905L880.3855009609833,16.863172934390604L1024.436436155811,80.25207723490894Z" fill="#353c4a" stroke="#353c4a"></path><path d="M1044.5591779239476,-75.96056604757905L1024.436436155811,80.25207723490894L1124.358155564405,34.66516527347267Z" fill="#2f2c43" stroke="#2f2c43"></path><path d="M1044.5591779239476,-75.96056604757905L1124.358155564405,34.66516527347267L1156.1373316543177,-109.90105542819947Z" fill="#101e21" stroke="#101e21"></path><path d="M1156.1373316543177,-109.90105542819947L1124.358155564405,34.66516527347267L1218.4610416321084,-74.68484478536993Z" fill="#10121a" stroke="#10121a"></path><path d="M1156.1373316543177,-109.90105542819947L1218.4610416321084,-74.68484478536993L1411.818464328535,-105.4962729010731Z" fill="#000000" stroke="#000000"></path><path d="M1218.4610416321084,-74.68484478536993L1124.358155564405,34.66516527347267L1219.5184761099517,75.61570060439408Z" fill="#2c1235" stroke="#2c1235"></path><path d="M1218.4610416321084,-74.68484478536993L1219.5184761099517,75.61570060439408L1348.936724937521,94.52343342360109Z" fill="#350b3c" stroke="#350b3c"></path><path d="M1218.4610416321084,-74.68484478536993L1348.936724937521,94.52343342360109L1411.818464328535,-105.4962729010731Z" fill="#19001f" stroke="#19001f"></path><path d="M1411.818464328535,-105.4962729010731L1348.936724937521,94.52343342360109L1393.1860753055662,225.12398212682456Z" fill="#46194e" stroke="#46194e"></path><path d="M1411.818464328535,-105.4962729010731L1393.1860753055662,225.12398212682456L1407.7648272225633,322.83753152005374Z" fill="#5c4467" stroke="#5c4467"></path><path d="M-99.61280512157828,109.71887650899589L-60.468986365012825,801.5711758239195L-79.5761718088761,406.38564446009696Z" fill="#6d7d6f" stroke="#6d7d6f"></path><path d="M-99.61280512157828,109.71887650899589L-79.5761718088761,406.38564446009696L-37.0901104202494,273.05027516558766Z" fill="#8c7593" stroke="#8c7593"></path><path d="M-99.61280512157828,109.71887650899589L-37.0901104202494,273.05027516558766L-50.4247886268422,142.46974421665072Z" fill="#785187" stroke="#785187"></path><path d="M-99.61280512157828,109.71887650899589L-50.4247886268422,142.46974421665072L50.52645741030574,56.673959866166115Z" fill="#682b77" stroke="#682b77"></path><path d="M50.52645741030574,56.673959866166115L-50.4247886268422,142.46974421665072L31.043200814165175,142.1381071396172Z" fill="#753384" stroke="#753384"></path><path d="M50.52645741030574,56.673959866166115L31.043200814165175,142.1381071396172L150.05702322348952,144.1986399423331Z" fill="#843f94" stroke="#843f94"></path><path d="M50.52645741030574,56.673959866166115L150.05702322348952,144.1986399423331L206.06896080542356,92.9199253115803Z" fill="#8b419b" stroke="#8b419b"></path><path d="M206.06896080542356,92.9199253115803L150.05702322348952,144.1986399423331L180.7514851167798,285.8594301622361Z" fill="#a976ba" stroke="#a976ba"></path><path d="M206.06896080542356,92.9199253115803L180.7514851167798,285.8594301622361L343.3904766337946,132.99157325644046Z" fill="#b187c4" stroke="#b187c4"></path><path d="M206.06896080542356,92.9199253115803L343.3904766337946,132.99157325644046L300.64983065240085,58.37558490689844Z" fill="#a167b1" stroke="#a167b1"></path><path d="M300.64983065240085,58.37558490689844L343.3904766337946,132.99157325644046L421.7819578759372,53.62286664545536Z" fill="#a96fb8" stroke="#a96fb8"></path><path d="M421.7819578759372,53.62286664545536L343.3904766337946,132.99157325644046L393.45002884976566,142.24613403901458Z" fill="#b686c5" stroke="#b686c5"></path><path d="M421.7819578759372,53.62286664545536L393.45002884976566,142.24613403901458L556.041779727675,213.52023237384856Z" fill="#c9a3d5" stroke="#c9a3d5"></path><path d="M421.7819578759372,53.62286664545536L556.041779727675,213.52023237384856L563.0427279369906,16.115506845526397Z" fill="#bf94c7" stroke="#bf94c7"></path><path d="M563.0427279369906,16.115506845526397L556.041779727675,213.52023237384856L644.9133510608226,199.25222997087985Z" fill="#c8b8d1" stroke="#c8b8d1"></path><path d="M563.0427279369906,16.115506845526397L644.9133510608226,199.25222997087985L679.8685422539711,68.66658515296876Z" fill="#b59cba" stroke="#b59cba"></path><path d="M679.8685422539711,68.66658515296876L644.9133510608226,199.25222997087985L801.273233438842,221.02977407164872Z" fill="#b9bac0" stroke="#b9bac0"></path><path d="M679.8685422539711,68.66658515296876L801.273233438842,221.02977407164872L815.8724280726165,43.86685331352055Z" fill="#9996a1" stroke="#9996a1"></path><path d="M815.8724280726165,43.86685331352055L801.273233438842,221.02977407164872L896.7067612335086,170.443485789001Z" fill="#8c9c9a" stroke="#8c9c9a"></path><path d="M815.8724280726165,43.86685331352055L896.7067612335086,170.443485789001L880.3855009609833,16.863172934390604Z" fill="#71707d" stroke="#71707d"></path><path d="M880.3855009609833,16.863172934390604L896.7067612335086,170.443485789001L980.8673447743058,149.75669919047505Z" fill="#6d7880" stroke="#6d7880"></path><path d="M880.3855009609833,16.863172934390604L980.8673447743058,149.75669919047505L1024.436436155811,80.25207723490894Z" fill="#595d6f" stroke="#595d6f"></path><path d="M1024.436436155811,80.25207723490894L980.8673447743058,149.75669919047505L1102.2445520712063,138.41538112144917Z" fill="#5b6573" stroke="#5b6573"></path><path d="M1024.436436155811,80.25207723490894L1102.2445520712063,138.41538112144917L1124.358155564405,34.66516527347267Z" fill="#4b4461" stroke="#4b4461"></path><path d="M1124.358155564405,34.66516527347267L1102.2445520712063,138.41538112144917L1219.5184761099517,75.61570060439408Z" fill="#4a3559" stroke="#4a3559"></path><path d="M1219.5184761099517,75.61570060439408L1102.2445520712063,138.41538112144917L1278.2833405444399,173.15633971709758Z" fill="#574562" stroke="#574562"></path><path d="M1219.5184761099517,75.61570060439408L1278.2833405444399,173.15633971709758L1348.936724937521,94.52343342360109Z" fill="#53325c" stroke="#53325c"></path><path d="M1348.936724937521,94.52343342360109L1278.2833405444399,173.15633971709758L1393.1860753055662,225.12398212682456Z" fill="#624c6c" stroke="#624c6c"></path><path d="M-50.4247886268422,142.46974421665072L-37.0901104202494,273.05027516558766L31.043200814165175,142.1381071396172Z" fill="#865594" stroke="#865594"></path><path d="M31.043200814165175,142.1381071396172L-37.0901104202494,273.05027516558766L56.409542951732874,315.79307513311505Z" fill="#9c71a7" stroke="#9c71a7"></path><path d="M31.043200814165175,142.1381071396172L56.409542951732874,315.79307513311505L150.05702322348952,144.1986399423331Z" fill="#a069af" stroke="#a069af"></path><path d="M150.05702322348952,144.1986399423331L56.409542951732874,315.79307513311505L180.7514851167798,285.8594301622361Z" fill="#b587c1" stroke="#b587c1"></path><path d="M343.3904766337946,132.99157325644046L180.7514851167798,285.8594301622361L256.0051321052015,330.73234285693616Z" fill="#c9acd6" stroke="#c9acd6"></path><path d="M343.3904766337946,132.99157325644046L256.0051321052015,330.73234285693616L453.94965163897723,267.4476922256872Z" fill="#d7bee3" stroke="#d7bee3"></path><path d="M343.3904766337946,132.99157325644046L453.94965163897723,267.4476922256872L393.45002884976566,142.24613403901458Z" fill="#ceacdc" stroke="#ceacdc"></path><path d="M393.45002884976566,142.24613403901458L453.94965163897723,267.4476922256872L556.041779727675,213.52023237384856Z" fill="#e2c6eb" stroke="#e2c6eb"></path><path d="M556.041779727675,213.52023237384856L453.94965163897723,267.4476922256872L552.4822603305802,260.42053010314703Z" fill="#eaddee" stroke="#eaddee"></path><path d="M556.041779727675,213.52023237384856L552.4822603305802,260.42053010314703L644.9133510608226,199.25222997087985Z" fill="#e3dce8" stroke="#e3dce8"></path><path d="M644.9133510608226,199.25222997087985L552.4822603305802,260.42053010314703L613.2880807528272,324.3754300987348Z" fill="#e8ece8" stroke="#e8ece8"></path><path d="M644.9133510608226,199.25222997087985L613.2880807528272,324.3754300987348L759.2786783073097,347.831265674904Z" fill="#def1db" stroke="#def1db"></path><path d="M644.9133510608226,199.25222997087985L759.2786783073097,347.831265674904L801.273233438842,221.02977407164872Z" fill="#cbdecc" stroke="#cbdecc"></path><path d="M801.273233438842,221.02977407164872L759.2786783073097,347.831265674904L908.0293000210077,304.4368989765644Z" fill="#b5dab7" stroke="#b5dab7"></path><path d="M801.273233438842,221.02977407164872L908.0293000210077,304.4368989765644L896.7067612335086,170.443485789001Z" fill="#9ebbaa" stroke="#9ebbaa"></path><path d="M896.7067612335086,170.443485789001L908.0293000210077,304.4368989765644L980.8673447743058,149.75669919047505Z" fill="#89a49c" stroke="#89a49c"></path><path d="M980.8673447743058,149.75669919047505L908.0293000210077,304.4368989765644L1047.2788944886997,277.57602082565427Z" fill="#85a898" stroke="#85a898"></path><path d="M980.8673447743058,149.75669919047505L1047.2788944886997,277.57602082565427L1102.2445520712063,138.41538112144917Z" fill="#708387" stroke="#708387"></path><path d="M1102.2445520712063,138.41538112144917L1047.2788944886997,277.57602082565427L1117.6229019043967,277.6441809721291Z" fill="#768b8a" stroke="#768b8a"></path><path d="M1102.2445520712063,138.41538112144917L1117.6229019043967,277.6441809721291L1278.2833405444399,173.15633971709758Z" fill="#6d6c7b" stroke="#6d6c7b"></path><path d="M1278.2833405444399,173.15633971709758L1117.6229019043967,277.6441809721291L1259.8333451803774,338.73258070088923Z" fill="#7c7c7e" stroke="#7c7c7e"></path><path d="M1278.2833405444399,173.15633971709758L1259.8333451803774,338.73258070088923L1393.1860753055662,225.12398212682456Z" fill="#796e7d" stroke="#796e7d"></path><path d="M1393.1860753055662,225.12398212682456L1259.8333451803774,338.73258070088923L1407.7648272225633,322.83753152005374Z" fill="#807f80" stroke="#807f80"></path><path d="M-37.0901104202494,273.05027516558766L-79.5761718088761,406.38564446009696L56.409542951732874,315.79307513311505Z" fill="#9b7fa0" stroke="#9b7fa0"></path><path d="M56.409542951732874,315.79307513311505L-79.5761718088761,406.38564446009696L96.36238330509514,418.2824750011787Z" fill="#9d84a1" stroke="#9d84a1"></path><path d="M56.409542951732874,315.79307513311505L96.36238330509514,418.2824750011787L180.7514851167798,285.8594301622361Z" fill="#b993be" stroke="#b993be"></path><path d="M180.7514851167798,285.8594301622361L96.36238330509514,418.2824750011787L221.69376348145306,455.59003262780607Z" fill="#b7a2bc" stroke="#b7a2bc"></path><path d="M180.7514851167798,285.8594301622361L221.69376348145306,455.59003262780607L256.0051321052015,330.73234285693616Z" fill="#c9b1d0" stroke="#c9b1d0"></path><path d="M256.0051321052015,330.73234285693616L221.69376348145306,455.59003262780607L307.0747475139797,406.42384018749Z" fill="#c0bcc7" stroke="#c0bcc7"></path><path d="M256.0051321052015,330.73234285693616L307.0747475139797,406.42384018749L453.94965163897723,267.4476922256872Z" fill="#ddcce3" stroke="#ddcce3"></path><path d="M453.94965163897723,267.4476922256872L307.0747475139797,406.42384018749L464.98481643386185,412.1098086750135Z" fill="#e7dbe9" stroke="#e7dbe9"></path><path d="M453.94965163897723,267.4476922256872L464.98481643386185,412.1098086750135L552.4822603305802,260.42053010314703Z" fill="#f3eaf3" stroke="#f3eaf3"></path><path d="M552.4822603305802,260.42053010314703L464.98481643386185,412.1098086750135L613.2880807528272,324.3754300987348Z" fill="#f0f0ee" stroke="#f0f0ee"></path><path d="M613.2880807528272,324.3754300987348L464.98481643386185,412.1098086750135L557.7103266585618,460.96761376131326Z" fill="#e0f1dd" stroke="#e0f1dd"></path><path d="M613.2880807528272,324.3754300987348L557.7103266585618,460.96761376131326L681.5031483210623,389.79890735819936Z" fill="#ddf7d8" stroke="#ddf7d8"></path><path d="M613.2880807528272,324.3754300987348L681.5031483210623,389.79890735819936L759.2786783073097,347.831265674904Z" fill="#dcf1d7" stroke="#dcf1d7"></path><path d="M759.2786783073097,347.831265674904L681.5031483210623,389.79890735819936L780.4612835822627,460.41125525254756Z" fill="#bfebba" stroke="#bfebba"></path><path d="M759.2786783073097,347.831265674904L780.4612835822627,460.41125525254756L892.1665038680658,386.305538197048Z" fill="#aadea9" stroke="#aadea9"></path><path d="M759.2786783073097,347.831265674904L892.1665038680658,386.305538197048L908.0293000210077,304.4368989765644Z" fill="#acd6ae" stroke="#acd6ae"></path><path d="M908.0293000210077,304.4368989765644L892.1665038680658,386.305538197048L978.3644659491256,460.6179708894342Z" fill="#8fc597" stroke="#8fc597"></path><path d="M908.0293000210077,304.4368989765644L978.3644659491256,460.6179708894342L1047.2788944886997,277.57602082565427Z" fill="#8cba99" stroke="#8cba99"></path><path d="M1047.2788944886997,277.57602082565427L978.3644659491256,460.6179708894342L1136.9369649421424,385.46750164125115Z" fill="#7eaa8a" stroke="#7eaa8a"></path><path d="M1047.2788944886997,277.57602082565427L1136.9369649421424,385.46750164125115L1117.6229019043967,277.6441809721291Z" fill="#809f8c" stroke="#809f8c"></path><path d="M1117.6229019043967,277.6441809721291L1136.9369649421424,385.46750164125115L1259.8333451803774,338.73258070088923Z" fill="#809083" stroke="#809083"></path><path d="M1259.8333451803774,338.73258070088923L1136.9369649421424,385.46750164125115L1258.1876358855516,413.09360552579165Z" fill="#788676" stroke="#788676"></path><path d="M1259.8333451803774,338.73258070088923L1258.1876358855516,413.09360552579165L1373.8134760828689,435.0637917686254Z" fill="#72806f" stroke="#72806f"></path><path d="M1259.8333451803774,338.73258070088923L1373.8134760828689,435.0637917686254L1407.7648272225633,322.83753152005374Z" fill="#7e807c" stroke="#7e807c"></path><path d="M1407.7648272225633,322.83753152005374L1373.8134760828689,435.0637917686254L1366.1796743934974,737.869052561Z" fill="#396a3d" stroke="#396a3d"></path><path d="M-79.5761718088761,406.38564446009696L-60.468986365012825,801.5711758239195L-11.567127532325685,670.9840667806566Z" fill="#1a3230" stroke="#1a3230"></path><path d="M-79.5761718088761,406.38564446009696L-11.567127532325685,670.9840667806566L-19.183310461230576,513.5420361859724Z" fill="#415c4e" stroke="#415c4e"></path><path d="M-79.5761718088761,406.38564446009696L-19.183310461230576,513.5420361859724L96.36238330509514,418.2824750011787Z" fill="#7a7b7e" stroke="#7a7b7e"></path><path d="M96.36238330509514,418.2824750011787L-19.183310461230576,513.5420361859724L45.40091693866998,544.4110236223787Z" fill="#66736f" stroke="#66736f"></path><path d="M96.36238330509514,418.2824750011787L45.40091693866998,544.4110236223787L185.17396084032953,500.20144894719124Z" fill="#798081" stroke="#798081"></path><path d="M96.36238330509514,418.2824750011787L185.17396084032953,500.20144894719124L221.69376348145306,455.59003262780607Z" fill="#949a9b" stroke="#949a9b"></path><path d="M221.69376348145306,455.59003262780607L185.17396084032953,500.20144894719124L251.86278296168894,510.91141280252486Z" fill="#889e93" stroke="#889e93"></path><path d="M221.69376348145306,455.59003262780607L251.86278296168894,510.91141280252486L307.0747475139797,406.42384018749Z" fill="#a3b3aa" stroke="#a3b3aa"></path><path d="M307.0747475139797,406.42384018749L251.86278296168894,510.91141280252486L382.82836529426277,585.0551057932898Z" fill="#90b09b" stroke="#90b09b"></path><path d="M307.0747475139797,406.42384018749L382.82836529426277,585.0551057932898L464.98481643386185,412.1098086750135Z" fill="#b1cab6" stroke="#b1cab6"></path><path d="M464.98481643386185,412.1098086750135L382.82836529426277,585.0551057932898L491.77681050263345,507.19202923122793Z" fill="#a5cbab" stroke="#a5cbab"></path><path d="M464.98481643386185,412.1098086750135L491.77681050263345,507.19202923122793L557.7103266585618,460.96761376131326Z" fill="#c4e3c3" stroke="#c4e3c3"></path><path d="M557.7103266585618,460.96761376131326L491.77681050263345,507.19202923122793L696.1588908359408,574.5609605079517Z" fill="#9fd8a2" stroke="#9fd8a2"></path><path d="M557.7103266585618,460.96761376131326L696.1588908359408,574.5609605079517L681.5031483210623,389.79890735819936Z" fill="#ade6aa" stroke="#ade6aa"></path><path d="M681.5031483210623,389.79890735819936L696.1588908359408,574.5609605079517L780.4612835822627,460.41125525254756Z" fill="#9ddf9b" stroke="#9ddf9b"></path><path d="M780.4612835822627,460.41125525254756L696.1588908359408,574.5609605079517L777.1599215175956,569.8280003713444Z" fill="#72c379" stroke="#72c379"></path><path d="M780.4612835822627,460.41125525254756L777.1599215175956,569.8280003713444L944.8722585104406,520.2461503772065Z" fill="#61bc69" stroke="#61bc69"></path><path d="M780.4612835822627,460.41125525254756L944.8722585104406,520.2461503772065L892.1665038680658,386.305538197048Z" fill="#7bc980" stroke="#7bc980"></path><path d="M892.1665038680658,386.305538197048L944.8722585104406,520.2461503772065L978.3644659491256,460.6179708894342Z" fill="#6abb74" stroke="#6abb74"></path><path d="M978.3644659491256,460.6179708894342L944.8722585104406,520.2461503772065L993.8686950178817,584.8228640016168Z" fill="#3a9b4f" stroke="#3a9b4f"></path><path d="M978.3644659491256,460.6179708894342L993.8686950178817,584.8228640016168L1132.065328755416,556.2999574560672Z" fill="#2d8843" stroke="#2d8843"></path><path d="M978.3644659491256,460.6179708894342L1132.065328755416,556.2999574560672L1136.9369649421424,385.46750164125115Z" fill="#4e985c" stroke="#4e985c"></path><path d="M1136.9369649421424,385.46750164125115L1132.065328755416,556.2999574560672L1258.1876358855516,413.09360552579165Z" fill="#578959" stroke="#578959"></path><path d="M1258.1876358855516,413.09360552579165L1132.065328755416,556.2999574560672L1283.226810595952,494.70110236201435Z" fill="#407342" stroke="#407342"></path><path d="M1258.1876358855516,413.09360552579165L1283.226810595952,494.70110236201435L1373.8134760828689,435.0637917686254Z" fill="#597b58" stroke="#597b58"></path><path d="M1373.8134760828689,435.0637917686254L1283.226810595952,494.70110236201435L1338.5863397689536,530.0914400117472Z" fill="#416e43" stroke="#416e43"></path><path d="M1373.8134760828689,435.0637917686254L1338.5863397689536,530.0914400117472L1366.1796743934974,737.869052561Z" fill="#164b24" stroke="#164b24"></path><path d="M-19.183310461230576,513.5420361859724L-11.567127532325685,670.9840667806566L45.40091693866998,544.4110236223787Z" fill="#334947" stroke="#334947"></path><path d="M45.40091693866998,544.4110236223787L-11.567127532325685,670.9840667806566L87.03805775381625,678.4287774609402Z" fill="#2d3744" stroke="#2d3744"></path><path d="M45.40091693866998,544.4110236223787L87.03805775381625,678.4287774609402L149.06414963304996,687.8782173991203Z" fill="#383e4f" stroke="#383e4f"></path><path d="M45.40091693866998,544.4110236223787L149.06414963304996,687.8782173991203L185.17396084032953,500.20144894719124Z" fill="#4d5e63" stroke="#4d5e63"></path><path d="M185.17396084032953,500.20144894719124L149.06414963304996,687.8782173991203L251.86278296168894,510.91141280252486Z" fill="#5c7772" stroke="#5c7772"></path><path d="M251.86278296168894,510.91141280252486L149.06414963304996,687.8782173991203L344.5024494314566,684.6756237233058Z" fill="#536b6c" stroke="#536b6c"></path><path d="M251.86278296168894,510.91141280252486L344.5024494314566,684.6756237233058L382.82836529426277,585.0551057932898Z" fill="#688b7f" stroke="#688b7f"></path><path d="M382.82836529426277,585.0551057932898L344.5024494314566,684.6756237233058L448.50133553147316,688.8517894921824Z" fill="#667f7b" stroke="#667f7b"></path><path d="M382.82836529426277,585.0551057932898L448.50133553147316,688.8517894921824L491.77681050263345,507.19202923122793Z" fill="#7aa28d" stroke="#7aa28d"></path><path d="M491.77681050263345,507.19202923122793L448.50133553147316,688.8517894921824L515.0543533824384,691.3349976902828Z" fill="#789b8a" stroke="#789b8a"></path><path d="M491.77681050263345,507.19202923122793L515.0543533824384,691.3349976902828L696.1588908359408,574.5609605079517Z" fill="#7db58b" stroke="#7db58b"></path><path d="M696.1588908359408,574.5609605079517L515.0543533824384,691.3349976902828L680.9762130398303,678.6414159601554Z" fill="#689f76" stroke="#689f76"></path><path d="M696.1588908359408,574.5609605079517L680.9762130398303,678.6414159601554L754.0213827230036,639.5438546221703Z" fill="#5b9f69" stroke="#5b9f69"></path><path d="M696.1588908359408,574.5609605079517L754.0213827230036,639.5438546221703L777.1599215175956,569.8280003713444Z" fill="#5baa69" stroke="#5baa69"></path><path d="M777.1599215175956,569.8280003713444L754.0213827230036,639.5438546221703L929.8061772948131,661.1917958501726Z" fill="#3c8f4f" stroke="#3c8f4f"></path><path d="M777.1599215175956,569.8280003713444L929.8061772948131,661.1917958501726L944.8722585104406,520.2461503772065Z" fill="#34934a" stroke="#34934a"></path><path d="M944.8722585104406,520.2461503772065L929.8061772948131,661.1917958501726L993.8686950178817,584.8228640016168Z" fill="#20813c" stroke="#20813c"></path><path d="M993.8686950178817,584.8228640016168L929.8061772948131,661.1917958501726L1000.280799139291,647.4808348482475Z" fill="#116b30" stroke="#116b30"></path><path d="M993.8686950178817,584.8228640016168L1000.280799139291,647.4808348482475L1126.5020017372444,634.197225831449Z" fill="#0c612b" stroke="#0c612b"></path><path d="M993.8686950178817,584.8228640016168L1126.5020017372444,634.197225831449L1132.065328755416,556.2999574560672Z" fill="#0e642c" stroke="#0e642c"></path><path d="M1132.065328755416,556.2999574560672L1126.5020017372444,634.197225831449L1252.6005017012358,672.2886865632609Z" fill="#07451c" stroke="#07451c"></path><path d="M1132.065328755416,556.2999574560672L1252.6005017012358,672.2886865632609L1283.226810595952,494.70110236201435Z" fill="#134e21" stroke="#134e21"></path><path d="M1283.226810595952,494.70110236201435L1252.6005017012358,672.2886865632609L1338.5863397689536,530.0914400117472Z" fill="#174c24" stroke="#174c24"></path><path d="M1338.5863397689536,530.0914400117472L1252.6005017012358,672.2886865632609L1339.4607912236825,699.9718017550185Z" fill="#042f15" stroke="#042f15"></path><path d="M1338.5863397689536,530.0914400117472L1339.4607912236825,699.9718017550185L1366.1796743934974,737.869052561Z" fill="#002510" stroke="#002510"></path><path d="M-11.567127532325685,670.9840667806566L-60.468986365012825,801.5711758239195L77.21190181560814,775.0423284200951Z" fill="#210126" stroke="#210126"></path><path d="M-11.567127532325685,670.9840667806566L77.21190181560814,775.0423284200951L87.03805775381625,678.4287774609402Z" fill="#2c1837" stroke="#2c1837"></path><path d="M87.03805775381625,678.4287774609402L77.21190181560814,775.0423284200951L149.06414963304996,687.8782173991203Z" fill="#381e42" stroke="#381e42"></path><path d="M149.06414963304996,687.8782173991203L77.21190181560814,775.0423284200951L214.92227022070438,771.7109936941415Z" fill="#3f1d46" stroke="#3f1d46"></path><path d="M149.06414963304996,687.8782173991203L214.92227022070438,771.7109936941415L344.5024494314566,684.6756237233058Z" fill="#4c4258" stroke="#4c4258"></path><path d="M344.5024494314566,684.6756237233058L214.92227022070438,771.7109936941415L339.2028832109645,736.8778656190261Z" fill="#56495e" stroke="#56495e"></path><path d="M344.5024494314566,684.6756237233058L339.2028832109645,736.8778656190261L448.50133553147316,688.8517894921824Z" fill="#63666f" stroke="#63666f"></path><path d="M448.50133553147316,688.8517894921824L339.2028832109645,736.8778656190261L431.40156977344304,818.2794353878126Z" fill="#685b6c" stroke="#685b6c"></path><path d="M448.50133553147316,688.8517894921824L431.40156977344304,818.2794353878126L515.0543533824384,691.3349976902828Z" fill="#716a72" stroke="#716a72"></path><path d="M515.0543533824384,691.3349976902828L431.40156977344304,818.2794353878126L534.3601842038333,826.6741049895063Z" fill="#736b73" stroke="#736b73"></path><path d="M515.0543533824384,691.3349976902828L534.3601842038333,826.6741049895063L648.4616181021556,793.3816985413432Z" fill="#6f746d" stroke="#6f746d"></path><path d="M515.0543533824384,691.3349976902828L648.4616181021556,793.3816985413432L680.9762130398303,678.6414159601554Z" fill="#6b806a" stroke="#6b806a"></path><path d="M680.9762130398303,678.6414159601554L648.4616181021556,793.3816985413432L819.1554399160668,816.2260069930926Z" fill="#566f53" stroke="#566f53"></path><path d="M680.9762130398303,678.6414159601554L819.1554399160668,816.2260069930926L754.0213827230036,639.5438546221703Z" fill="#4c764e" stroke="#4c764e"></path><path d="M754.0213827230036,639.5438546221703L819.1554399160668,816.2260069930926L929.8061772948131,661.1917958501726Z" fill="#32693a" stroke="#32693a"></path><path d="M929.8061772948131,661.1917958501726L819.1554399160668,816.2260069930926L939.1359292669222,812.9380406299606Z" fill="#214d28" stroke="#214d28"></path><path d="M929.8061772948131,661.1917958501726L939.1359292669222,812.9380406299606L1000.280799139291,647.4808348482475Z" fill="#114e23" stroke="#114e23"></path><path d="M1000.280799139291,647.4808348482475L939.1359292669222,812.9380406299606L1051.0462747700512,813.3251256495714Z" fill="#0b3619" stroke="#0b3619"></path><path d="M1000.280799139291,647.4808348482475L1051.0462747700512,813.3251256495714L1103.421526295133,754.5546934660524Z" fill="#052c12" stroke="#052c12"></path><path d="M1000.280799139291,647.4808348482475L1103.421526295133,754.5546934660524L1126.5020017372444,634.197225831449Z" fill="#02411a" stroke="#02411a"></path><path d="M1126.5020017372444,634.197225831449L1103.421526295133,754.5546934660524L1252.6005017012358,672.2886865632609Z" fill="#002b0f" stroke="#002b0f"></path><path d="M1252.6005017012358,672.2886865632609L1103.421526295133,754.5546934660524L1282.3532702075318,802.2325993468985Z" fill="#000800" stroke="#000800"></path><path d="M1252.6005017012358,672.2886865632609L1282.3532702075318,802.2325993468985L1339.4607912236825,699.9718017550185Z" fill="#000802" stroke="#000802"></path><path d="M1339.4607912236825,699.9718017550185L1282.3532702075318,802.2325993468985L1366.1796743934974,737.869052561Z" fill="#000000" stroke="#000000"></path><path d="M-60.468986365012825,801.5711758239195L534.3601842038333,826.6741049895063L431.40156977344304,818.2794353878126Z" fill="#57455f" stroke="#57455f"></path><path d="M-60.468986365012825,801.5711758239195L431.40156977344304,818.2794353878126L77.21190181560814,775.0423284200951Z" fill="#3f1d46" stroke="#3f1d46"></path><path d="M77.21190181560814,775.0423284200951L431.40156977344304,818.2794353878126L214.92227022070438,771.7109936941415Z" fill="#4d3856" stroke="#4d3856"></path><path d="M214.92227022070438,771.7109936941415L431.40156977344304,818.2794353878126L339.2028832109645,736.8778656190261Z" fill="#5b4b63" stroke="#5b4b63"></path><path d="M534.3601842038333,826.6741049895063L1051.0462747700512,813.3251256495714L819.1554399160668,816.2260069930926Z" fill="#3c603d" stroke="#3c603d"></path><path d="M534.3601842038333,826.6741049895063L819.1554399160668,816.2260069930926L648.4616181021556,793.3816985413432Z" fill="#60735d" stroke="#60735d"></path><path d="M819.1554399160668,816.2260069930926L1051.0462747700512,813.3251256495714L939.1359292669222,812.9380406299606Z" fill="#164421" stroke="#164421"></path><path d="M1051.0462747700512,813.3251256495714L1282.3532702075318,802.2325993468985L1103.421526295133,754.5546934660524Z" fill="#001607" stroke="#001607"></path></g></svg>
