<svg width="780" height="220" xmlns="http://www.w3.org/2000/svg"><g><path d="M-68.23466976173222,-43.128277896903455L-73.72106978204101,292.95577676966786L-69.88223432097584,108.54890959337354Z" fill="#c23b38" stroke="#c23b38"></path><path d="M-68.23466976173222,-43.128277896903455L-69.88223432097584,108.54890959337354L-59.00307582691312,35.05149139557034Z" fill="#b50f2a" stroke="#b50f2a"></path><path d="M-68.23466976173222,-43.128277896903455L-59.00307582691312,35.05149139557034L35.22053733933717,34.036047966219485Z" fill="#b2042a" stroke="#b2042a"></path><path d="M-68.23466976173222,-43.128277896903455L35.22053733933717,34.036047966219485L71.2410807190463,-32.231211829930544Z" fill="#b2032a" stroke="#b2032a"></path><path d="M-68.23466976173222,-43.128277896903455L71.2410807190463,-32.231211829930544L325.90205821674317,-50.07871024310589Z" fill="#bc182a" stroke="#bc182a"></path><path d="M-68.23466976173222,-43.128277896903455L325.90205821674317,-50.07871024310589L489.72271220292896,-61.78854385390878Z" fill="#c73f3c" stroke="#c73f3c"></path><path d="M71.2410807190463,-32.231211829930544L35.22053733933717,34.036047966219485L110.37288101390004,-22.426195302978158Z" fill="#c3102a" stroke="#c3102a"></path><path d="M71.2410807190463,-32.231211829930544L110.37288101390004,-22.426195302978158L325.90205821674317,-50.07871024310589Z" fill="#c72931" stroke="#c72931"></path><path d="M110.37288101390004,-22.426195302978158L35.22053733933717,34.036047966219485L156.3765212148428,23.00835767760873Z" fill="#d11b2a" stroke="#d11b2a"></path><path d="M110.37288101390004,-22.426195302978158L156.3765212148428,23.00835767760873L239.88282669335604,-21.168912202119827Z" fill="#d32832" stroke="#d32832"></path><path d="M110.37288101390004,-22.426195302978158L239.88282669335604,-21.168912202119827L325.90205821674317,-50.07871024310589Z" fill="#cf3839" stroke="#cf3839"></path><path d="M239.88282669335604,-21.168912202119827L156.3765212148428,23.00835767760873L235.0504774460569,67.46258882805705Z" fill="#e53e37" stroke="#e53e37"></path><path d="M239.88282669335604,-21.168912202119827L235.0504774460569,67.46258882805705L290.05689782090485,45.7472275570035Z" fill="#ec4e3d" stroke="#ec4e3d"></path><path d="M239.88282669335604,-21.168912202119827L290.05689782090485,45.7472275570035L325.90205821674317,-50.07871024310589Z" fill="#db4a41" stroke="#db4a41"></path><path d="M325.90205821674317,-50.07871024310589L290.05689782090485,45.7472275570035L417.944432082586,16.884838845580816Z" fill="#e35c4a" stroke="#e35c4a"></path><path d="M325.90205821674317,-50.07871024310589L417.944432082586,16.884838845580816L409.2005510022864,-40.933778369799256Z" fill="#d66352" stroke="#d66352"></path><path d="M325.90205821674317,-50.07871024310589L409.2005510022864,-40.933778369799256L489.72271220292896,-61.78854385390878Z" fill="#cb6956" stroke="#cb6956"></path><path d="M409.2005510022864,-40.933778369799256L417.944432082586,16.884838845580816L467.2666708007455,23.27236109878868Z" fill="#e26e5a" stroke="#e26e5a"></path><path d="M409.2005510022864,-40.933778369799256L467.2666708007455,23.27236109878868L489.72271220292896,-61.78854385390878Z" fill="#d67260" stroke="#d67260"></path><path d="M489.72271220292896,-61.78854385390878L467.2666708007455,23.27236109878868L559.7457957314327,-51.02947277482599Z" fill="#d5796c" stroke="#d5796c"></path><path d="M489.72271220292896,-61.78854385390878L559.7457957314327,-51.02947277482599L664.9445216311142,-63.41363048180938Z" fill="#c57e71" stroke="#c57e71"></path><path d="M489.72271220292896,-61.78854385390878L664.9445216311142,-63.41363048180938L842.1695526083931,-69.1256380872801Z" fill="#b2775b" stroke="#b2775b"></path><path d="M559.7457957314327,-51.02947277482599L467.2666708007455,23.27236109878868L560.4641863983124,69.3911595409736Z" fill="#e88371" stroke="#e88371"></path><path d="M559.7457957314327,-51.02947277482599L560.4641863983124,69.3911595409736L651.8949430854991,56.74753546714783Z" fill="#e6886d" stroke="#e6886d"></path><path d="M559.7457957314327,-51.02947277482599L651.8949430854991,56.74753546714783L664.9445216311142,-63.41363048180938Z" fill="#cd7a65" stroke="#cd7a65"></path><path d="M664.9445216311142,-63.41363048180938L651.8949430854991,56.74753546714783L738.3157389471307,-52.41375328972936Z" fill="#c17559" stroke="#c17559"></path><path d="M664.9445216311142,-63.41363048180938L738.3157389471307,-52.41375328972936L842.1695526083931,-69.1256380872801Z" fill="#a06f4f" stroke="#a06f4f"></path><path d="M738.3157389471307,-52.41375328972936L651.8949430854991,56.74753546714783L777.989926468581,42.31654181610793Z" fill="#c87953" stroke="#c87953"></path><path d="M738.3157389471307,-52.41375328972936L777.989926468581,42.31654181610793L842.1695526083931,-69.1256380872801Z" fill="#a66b4b" stroke="#a66b4b"></path><path d="M842.1695526083931,-69.1256380872801L777.989926468581,42.31654181610793L848.6962599959224,43.60309707932174Z" fill="#a9694a" stroke="#a9694a"></path><path d="M842.1695526083931,-69.1256380872801L848.6962599959224,43.60309707932174L965.1311198389158,-23.849633848294616Z" fill="#8d5e48" stroke="#8d5e48"></path><path d="M842.1695526083931,-69.1256380872801L965.1311198389158,-23.849633848294616L1126.6268194746226,-48.604866955429316Z" fill="#5f4f3f" stroke="#5f4f3f"></path><path d="M842.1695526083931,-69.1256380872801L1126.6268194746226,-48.604866955429316L1213.988306382671,-50.81546192988753Z" fill="#4f3d36" stroke="#4f3d36"></path><path d="M965.1311198389158,-23.849633848294616L848.6962599959224,43.60309707932174L946.6813666932285,35.840197345241904Z" fill="#906045" stroke="#906045"></path><path d="M965.1311198389158,-23.849633848294616L946.6813666932285,35.840197345241904L1019.8058396251872,36.94404565729201Z" fill="#7c5640" stroke="#7c5640"></path><path d="M965.1311198389158,-23.849633848294616L1019.8058396251872,36.94404565729201L1064.62710283231,-24.33056489098817Z" fill="#6b473c" stroke="#6b473c"></path><path d="M965.1311198389158,-23.849633848294616L1064.62710283231,-24.33056489098817L1126.6268194746226,-48.604866955429316Z" fill="#5a3f38" stroke="#5a3f38"></path><path d="M1064.62710283231,-24.33056489098817L1019.8058396251872,36.94404565729201L1128.358720256947,73.83217767812312Z" fill="#734736" stroke="#734736"></path><path d="M1064.62710283231,-24.33056489098817L1128.358720256947,73.83217767812312L1126.6268194746226,-48.604866955429316Z" fill="#633332" stroke="#633332"></path><path d="M1126.6268194746226,-48.604866955429316L1128.358720256947,73.83217767812312L1231.1702982522547,38.410349590703845Z" fill="#6c302b" stroke="#6c302b"></path><path d="M1126.6268194746226,-48.604866955429316L1231.1702982522547,38.410349590703845L1213.988306382671,-50.81546192988753Z" fill="#5a2128" stroke="#5a2128"></path><path d="M1213.988306382671,-50.81546192988753L1231.1702982522547,38.410349590703845L1323.6088710045442,-44.69869438558817Z" fill="#5a1321" stroke="#5a1321"></path><path d="M1323.6088710045442,-44.69869438558817L1231.1702982522547,38.410349590703845L1325.8248684927821,54.560921899974346Z" fill="#6a111c" stroke="#6a111c"></path><path d="M-59.00307582691312,35.05149139557034L-69.88223432097584,108.54890959337354L35.22053733933717,34.036047966219485Z" fill="#c81a2a" stroke="#c81a2a"></path><path d="M35.22053733933717,34.036047966219485L-69.88223432097584,108.54890959337354L45.54536605719477,125.86195703130215Z" fill="#d32b30" stroke="#d32b30"></path><path d="M35.22053733933717,34.036047966219485L45.54536605719477,125.86195703130215L154.82984540518373,124.19260353315622Z" fill="#e43e32" stroke="#e43e32"></path><path d="M35.22053733933717,34.036047966219485L154.82984540518373,124.19260353315622L156.3765212148428,23.00835767760873Z" fill="#ea342b" stroke="#ea342b"></path><path d="M156.3765212148428,23.00835767760873L154.82984540518373,124.19260353315622L235.0504774460569,67.46258882805705Z" fill="#f54c35" stroke="#f54c35"></path><path d="M235.0504774460569,67.46258882805705L154.82984540518373,124.19260353315622L231.10141438432038,113.03102867212147Z" fill="#f86441" stroke="#f86441"></path><path d="M235.0504774460569,67.46258882805705L231.10141438432038,113.03102867212147L290.05689782090485,45.7472275570035Z" fill="#fb6240" stroke="#fb6240"></path><path d="M290.05689782090485,45.7472275570035L231.10141438432038,113.03102867212147L340.2635943610221,128.95289721898735Z" fill="#fc784a" stroke="#fc784a"></path><path d="M290.05689782090485,45.7472275570035L340.2635943610221,128.95289721898735L417.944432082586,16.884838845580816Z" fill="#fe784b" stroke="#fe784b"></path><path d="M417.944432082586,16.884838845580816L340.2635943610221,128.95289721898735L385.0574162788689,150.8757289359346Z" fill="#fe925a" stroke="#fe925a"></path><path d="M417.944432082586,16.884838845580816L385.0574162788689,150.8757289359346L467.2666708007455,23.27236109878868Z" fill="#fe8859" stroke="#fe8859"></path><path d="M467.2666708007455,23.27236109878868L385.0574162788689,150.8757289359346L505.69029787089676,133.97023829631507Z" fill="#ffa369" stroke="#ffa369"></path><path d="M467.2666708007455,23.27236109878868L505.69029787089676,133.97023829631507L560.4641863983124,69.3911595409736Z" fill="#ff9c70" stroke="#ff9c70"></path><path d="M560.4641863983124,69.3911595409736L505.69029787089676,133.97023829631507L587.1160179795697,111.04940573684871Z" fill="#ffb281" stroke="#ffb281"></path><path d="M560.4641863983124,69.3911595409736L587.1160179795697,111.04940573684871L651.8949430854991,56.74753546714783Z" fill="#f7a06f" stroke="#f7a06f"></path><path d="M651.8949430854991,56.74753546714783L587.1160179795697,111.04940573684871L675.5984747596085,113.98479969240725Z" fill="#f0a66a" stroke="#f0a66a"></path><path d="M651.8949430854991,56.74753546714783L675.5984747596085,113.98479969240725L777.989926468581,42.31654181610793Z" fill="#e39358" stroke="#e39358"></path><path d="M777.989926468581,42.31654181610793L675.5984747596085,113.98479969240725L759.1600654833019,119.53923460096121Z" fill="#db9c58" stroke="#db9c58"></path><path d="M777.989926468581,42.31654181610793L759.1600654833019,119.53923460096121L848.6962599959224,43.60309707932174Z" fill="#cc884c" stroke="#cc884c"></path><path d="M848.6962599959224,43.60309707932174L759.1600654833019,119.53923460096121L883.3056173147634,135.26943419594318Z" fill="#c29553" stroke="#c29553"></path><path d="M848.6962599959224,43.60309707932174L883.3056173147634,135.26943419594318L946.6813666932285,35.840197345241904Z" fill="#af7d49" stroke="#af7d49"></path><path d="M946.6813666932285,35.840197345241904L883.3056173147634,135.26943419594318L916.2415655935183,157.08595974370837Z" fill="#a78e51" stroke="#a78e51"></path><path d="M946.6813666932285,35.840197345241904L916.2415655935183,157.08595974370837L1027.3877221578732,126.07656586915255Z" fill="#96844c" stroke="#96844c"></path><path d="M946.6813666932285,35.840197345241904L1027.3877221578732,126.07656586915255L1019.8058396251872,36.94404565729201Z" fill="#8c683f" stroke="#8c683f"></path><path d="M1019.8058396251872,36.94404565729201L1027.3877221578732,126.07656586915255L1128.358720256947,73.83217767812312Z" fill="#85623b" stroke="#85623b"></path><path d="M1128.358720256947,73.83217767812312L1027.3877221578732,126.07656586915255L1129.21457413584,125.93911436386406Z" fill="#816a3f" stroke="#816a3f"></path><path d="M1128.358720256947,73.83217767812312L1129.21457413584,125.93911436386406L1206.3464099541306,140.21662982180715Z" fill="#806039" stroke="#806039"></path><path d="M1128.358720256947,73.83217767812312L1206.3464099541306,140.21662982180715L1231.1702982522547,38.410349590703845Z" fill="#80482e" stroke="#80482e"></path><path d="M1231.1702982522547,38.410349590703845L1206.3464099541306,140.21662982180715L1284.1627193335444,134.24728233832866Z" fill="#80482d" stroke="#80482d"></path><path d="M1231.1702982522547,38.410349590703845L1284.1627193335444,134.24728233832866L1325.8248684927821,54.560921899974346Z" fill="#802f21" stroke="#802f21"></path><path d="M1325.8248684927821,54.560921899974346L1284.1627193335444,134.24728233832866L1323.6089502135292,198.433999218978Z" fill="#80472b" stroke="#80472b"></path><path d="M1325.8248684927821,54.560921899974346L1323.6089502135292,198.433999218978L1323.6354547273368,402.6268480019644Z" fill="#807345" stroke="#807345"></path><path d="M-69.88223432097584,108.54890959337354L-73.72106978204101,292.95577676966786L-34.58404732402414,225.81132381688803Z" fill="#c56c51" stroke="#c56c51"></path><path d="M-69.88223432097584,108.54890959337354L-34.58404732402414,225.81132381688803L45.54536605719477,125.86195703130215Z" fill="#ce4e41" stroke="#ce4e41"></path><path d="M45.54536605719477,125.86195703130215L-34.58404732402414,225.81132381688803L27.665591910481453,221.64468867704272Z" fill="#d5684b" stroke="#d5684b"></path><path d="M45.54536605719477,125.86195703130215L27.665591910481453,221.64468867704272L154.82984540518373,124.19260353315622Z" fill="#e36143" stroke="#e36143"></path><path d="M154.82984540518373,124.19260353315622L27.665591910481453,221.64468867704272L152.37528401892632,250.04721004050225Z" fill="#eb814e" stroke="#eb814e"></path><path d="M154.82984540518373,124.19260353315622L152.37528401892632,250.04721004050225L232.43828714825213,231.505639096722Z" fill="#f49558" stroke="#f49558"></path><path d="M154.82984540518373,124.19260353315622L232.43828714825213,231.505639096722L231.10141438432038,113.03102867212147Z" fill="#f8834f" stroke="#f8834f"></path><path d="M231.10141438432038,113.03102867212147L232.43828714825213,231.505639096722L340.2635943610221,128.95289721898735Z" fill="#fc9657" stroke="#fc9657"></path><path d="M340.2635943610221,128.95289721898735L232.43828714825213,231.505639096722L315.98855888005346,249.60795398801565Z" fill="#fdb768" stroke="#fdb768"></path><path d="M340.2635943610221,128.95289721898735L315.98855888005346,249.60795398801565L385.0574162788689,150.8757289359346Z" fill="#feb768" stroke="#feb768"></path><path d="M385.0574162788689,150.8757289359346L315.98855888005346,249.60795398801565L404.8940637940541,245.27999902144074Z" fill="#fece79" stroke="#fece79"></path><path d="M385.0574162788689,150.8757289359346L404.8940637940541,245.27999902144074L498.2113711209968,231.82439829222858Z" fill="#ffda82" stroke="#ffda82"></path><path d="M385.0574162788689,150.8757289359346L498.2113711209968,231.82439829222858L505.69029787089676,133.97023829631507Z" fill="#ffcd7e" stroke="#ffcd7e"></path><path d="M505.69029787089676,133.97023829631507L498.2113711209968,231.82439829222858L591.9975455710664,216.37515970040113Z" fill="#ffe394" stroke="#ffe394"></path><path d="M505.69029787089676,133.97023829631507L591.9975455710664,216.37515970040113L587.1160179795697,111.04940573684871Z" fill="#fdcd8b" stroke="#fdcd8b"></path><path d="M587.1160179795697,111.04940573684871L591.9975455710664,216.37515970040113L675.5984747596085,113.98479969240725Z" fill="#f4c57c" stroke="#f4c57c"></path><path d="M675.5984747596085,113.98479969240725L591.9975455710664,216.37515970040113L699.069661097601,249.9833879666403Z" fill="#edde80" stroke="#edde80"></path><path d="M675.5984747596085,113.98479969240725L699.069661097601,249.9833879666403L759.1600654833019,119.53923460096121Z" fill="#e1c66e" stroke="#e1c66e"></path><path d="M759.1600654833019,119.53923460096121L699.069661097601,249.9833879666403L786.9708792306483,211.16919052787125Z" fill="#d8d572" stroke="#d8d572"></path><path d="M759.1600654833019,119.53923460096121L786.9708792306483,211.16919052787125L883.3056173147634,135.26943419594318Z" fill="#c8b763" stroke="#c8b763"></path><path d="M883.3056173147634,135.26943419594318L786.9708792306483,211.16919052787125L857.8670095698908,229.00301171466708Z" fill="#bec96b" stroke="#bec96b"></path><path d="M883.3056173147634,135.26943419594318L857.8670095698908,229.00301171466708L916.2415655935183,157.08595974370837Z" fill="#b1b865" stroke="#b1b865"></path><path d="M916.2415655935183,157.08595974370837L857.8670095698908,229.00301171466708L972.0426008244976,211.59745505545288Z" fill="#a7c269" stroke="#a7c269"></path><path d="M916.2415655935183,157.08595974370837L972.0426008244976,211.59745505545288L1027.3877221578732,126.07656586915255Z" fill="#94a55b" stroke="#94a55b"></path><path d="M1027.3877221578732,126.07656586915255L972.0426008244976,211.59745505545288L1045.1211728481576,225.611967346631Z" fill="#8aaa5d" stroke="#8aaa5d"></path><path d="M1027.3877221578732,126.07656586915255L1045.1211728481576,225.611967346631L1120.9320415416732,203.24645795859396Z" fill="#849d56" stroke="#849d56"></path><path d="M1027.3877221578732,126.07656586915255L1120.9320415416732,203.24645795859396L1129.21457413584,125.93911436386406Z" fill="#81844a" stroke="#81844a"></path><path d="M1129.21457413584,125.93911436386406L1120.9320415416732,203.24645795859396L1206.3464099541306,140.21662982180715Z" fill="#807945" stroke="#807945"></path><path d="M1206.3464099541306,140.21662982180715L1120.9320415416732,203.24645795859396L1239.0869453782216,245.35812294110656Z" fill="#80894b" stroke="#80894b"></path><path d="M1206.3464099541306,140.21662982180715L1239.0869453782216,245.35812294110656L1284.1627193335444,134.24728233832866Z" fill="#806f3f" stroke="#806f3f"></path><path d="M1284.1627193335444,134.24728233832866L1239.0869453782216,245.35812294110656L1323.6089502135292,198.433999218978Z" fill="#807240" stroke="#807240"></path><path d="M-34.58404732402414,225.81132381688803L-73.72106978204101,292.95577676966786L24.727268214337528,300.91788133140653Z" fill="#cc806c" stroke="#cc806c"></path><path d="M-34.58404732402414,225.81132381688803L24.727268214337528,300.91788133140653L27.665591910481453,221.64468867704272Z" fill="#d47d61" stroke="#d47d61"></path><path d="M27.665591910481453,221.64468867704272L24.727268214337528,300.91788133140653L124.85709736123681,305.17598579172045Z" fill="#e08d6d" stroke="#e08d6d"></path><path d="M27.665591910481453,221.64468867704272L124.85709736123681,305.17598579172045L152.37528401892632,250.04721004050225Z" fill="#e99566" stroke="#e99566"></path><path d="M152.37528401892632,250.04721004050225L124.85709736123681,305.17598579172045L254.024156620726,316.77235573064536Z" fill="#f4aa7d" stroke="#f4aa7d"></path><path d="M152.37528401892632,250.04721004050225L254.024156620726,316.77235573064536L232.43828714825213,231.505639096722Z" fill="#f9b476" stroke="#f9b476"></path><path d="M232.43828714825213,231.505639096722L254.024156620726,316.77235573064536L315.98855888005346,249.60795398801565Z" fill="#fcc47d" stroke="#fcc47d"></path><path d="M315.98855888005346,249.60795398801565L254.024156620726,316.77235573064536L334.5211632968858,289.8952585598454Z" fill="#fdce8b" stroke="#fdce8b"></path><path d="M315.98855888005346,249.60795398801565L334.5211632968858,289.8952585598454L404.8940637940541,245.27999902144074Z" fill="#fedc88" stroke="#fedc88"></path><path d="M404.8940637940541,245.27999902144074L334.5211632968858,289.8952585598454L421.4969894941896,329.0331269754097Z" fill="#ffe49b" stroke="#ffe49b"></path><path d="M404.8940637940541,245.27999902144074L421.4969894941896,329.0331269754097L481.37218558229506,310.28880993369967Z" fill="#ffefa7" stroke="#ffefa7"></path><path d="M404.8940637940541,245.27999902144074L481.37218558229506,310.28880993369967L498.2113711209968,231.82439829222858Z" fill="#fff39e" stroke="#fff39e"></path><path d="M498.2113711209968,231.82439829222858L481.37218558229506,310.28880993369967L565.4712495859712,322.30732433963567Z" fill="#fffab7" stroke="#fffab7"></path><path d="M498.2113711209968,231.82439829222858L565.4712495859712,322.30732433963567L591.9975455710664,216.37515970040113Z" fill="#fffdb1" stroke="#fffdb1"></path><path d="M591.9975455710664,216.37515970040113L565.4712495859712,322.30732433963567L668.6101143155247,331.86387949157506Z" fill="#f5fbb3" stroke="#f5fbb3"></path><path d="M591.9975455710664,216.37515970040113L668.6101143155247,331.86387949157506L699.069661097601,249.9833879666403Z" fill="#eef89d" stroke="#eef89d"></path><path d="M699.069661097601,249.9833879666403L668.6101143155247,331.86387949157506L787.4826914398,344.4253074936569Z" fill="#dff2a6" stroke="#dff2a6"></path><path d="M699.069661097601,249.9833879666403L787.4826914398,344.4253074936569L786.9708792306483,211.16919052787125Z" fill="#d6ee8d" stroke="#d6ee8d"></path><path d="M786.9708792306483,211.16919052787125L787.4826914398,344.4253074936569L835.1364264870062,329.166449024342Z" fill="#c9e897" stroke="#c9e897"></path><path d="M786.9708792306483,211.16919052787125L835.1364264870062,329.166449024342L857.8670095698908,229.00301171466708Z" fill="#c3e384" stroke="#c3e384"></path><path d="M857.8670095698908,229.00301171466708L835.1364264870062,329.166449024342L934.890424143523,331.2138885073364Z" fill="#b4df95" stroke="#b4df95"></path><path d="M857.8670095698908,229.00301171466708L934.890424143523,331.2138885073364L972.0426008244976,211.59745505545288Z" fill="#a5d67f" stroke="#a5d67f"></path><path d="M972.0426008244976,211.59745505545288L934.890424143523,331.2138885073364L1045.1211728481576,225.611967346631Z" fill="#8fcb7a" stroke="#8fcb7a"></path><path d="M1045.1211728481576,225.611967346631L934.890424143523,331.2138885073364L1051.9887255504727,338.6979219177738Z" fill="#8bc88b" stroke="#8bc88b"></path><path d="M1045.1211728481576,225.611967346631L1051.9887255504727,338.6979219177738L1096.2890736479312,321.29713520407677Z" fill="#84bc83" stroke="#84bc83"></path><path d="M1045.1211728481576,225.611967346631L1096.2890736479312,321.29713520407677L1120.9320415416732,203.24645795859396Z" fill="#81b26c" stroke="#81b26c"></path><path d="M1120.9320415416732,203.24645795859396L1096.2890736479312,321.29713520407677L1205.9169481415302,310.894330535084Z" fill="#80ab72" stroke="#80ab72"></path><path d="M1120.9320415416732,203.24645795859396L1205.9169481415302,310.894330535084L1239.0869453782216,245.35812294110656Z" fill="#809e61" stroke="#809e61"></path><path d="M1239.0869453782216,245.35812294110656L1205.9169481415302,310.894330535084L1304.521280969493,319.86628672108054Z" fill="#80946c" stroke="#80946c"></path><path d="M1239.0869453782216,245.35812294110656L1304.521280969493,319.86628672108054L1323.6089502135292,198.433999218978Z" fill="#808857" stroke="#808857"></path><path d="M1323.6089502135292,198.433999218978L1304.521280969493,319.86628672108054L1323.6354547273368,402.6268480019644Z" fill="#80856c" stroke="#80856c"></path><path d="M-73.72106978204101,292.95577676966786L-63.62705385312438,579.680535136722L-54.97040896676481,377.3703570384532Z" fill="#b9805e" stroke="#b9805e"></path><path d="M-73.72106978204101,292.95577676966786L-54.97040896676481,377.3703570384532L24.727268214337528,300.91788133140653Z" fill="#ca8084" stroke="#ca8084"></path><path d="M24.727268214337528,300.91788133140653L-54.97040896676481,377.3703570384532L44.181362595409155,419.42331494763494Z" fill="#d38173" stroke="#d38173"></path><path d="M24.727268214337528,300.91788133140653L44.181362595409155,419.42331494763494L124.85709736123681,305.17598579172045Z" fill="#e18e7f" stroke="#e18e7f"></path><path d="M124.85709736123681,305.17598579172045L44.181362595409155,419.42331494763494L150.43621794786304,427.48347429558635Z" fill="#ea976b" stroke="#ea976b"></path><path d="M124.85709736123681,305.17598579172045L150.43621794786304,427.48347429558635L208.9590605115518,406.9357827119529Z" fill="#f2a673" stroke="#f2a673"></path><path d="M124.85709736123681,305.17598579172045L208.9590605115518,406.9357827119529L254.024156620726,316.77235573064536Z" fill="#f7af89" stroke="#f7af89"></path><path d="M254.024156620726,316.77235573064536L208.9590605115518,406.9357827119529L311.3379652099684,409.1080349497497Z" fill="#fbc181" stroke="#fbc181"></path><path d="M254.024156620726,316.77235573064536L311.3379652099684,409.1080349497497L334.5211632968858,289.8952585598454Z" fill="#fdce99" stroke="#fdce99"></path><path d="M334.5211632968858,289.8952585598454L311.3379652099684,409.1080349497497L382.5066547701135,401.9614509958774Z" fill="#feda92" stroke="#feda92"></path><path d="M334.5211632968858,289.8952585598454L382.5066547701135,401.9614509958774L421.4969894941896,329.0331269754097Z" fill="#fee2a6" stroke="#fee2a6"></path><path d="M421.4969894941896,329.0331269754097L382.5066547701135,401.9614509958774L508.4486505109817,427.0049744658172Z" fill="#ffef9b" stroke="#ffef9b"></path><path d="M421.4969894941896,329.0331269754097L508.4486505109817,427.0049744658172L481.37218558229506,310.28880993369967Z" fill="#fff4b1" stroke="#fff4b1"></path><path d="M481.37218558229506,310.28880993369967L508.4486505109817,427.0049744658172L565.4712495859712,322.30732433963567Z" fill="#fffbbe" stroke="#fffbbe"></path><path d="M565.4712495859712,322.30732433963567L508.4486505109817,427.0049744658172L586.2567835953087,404.0763609437272Z" fill="#ffffb6" stroke="#ffffb6"></path><path d="M565.4712495859712,322.30732433963567L586.2567835953087,404.0763609437272L668.6101143155247,331.86387949157506Z" fill="#f6fbb9" stroke="#f6fbb9"></path><path d="M668.6101143155247,331.86387949157506L586.2567835953087,404.0763609437272L666.9737945822999,425.15841828659177Z" fill="#f0f9a0" stroke="#f0f9a0"></path><path d="M668.6101143155247,331.86387949157506L666.9737945822999,425.15841828659177L782.8163511073217,400.9180058352649Z" fill="#e2f395" stroke="#e2f395"></path><path d="M668.6101143155247,331.86387949157506L782.8163511073217,400.9180058352649L787.4826914398,344.4253074936569Z" fill="#d9ef9c" stroke="#d9ef9c"></path><path d="M787.4826914398,344.4253074936569L782.8163511073217,400.9180058352649L826.8799280142412,379.2914106231183Z" fill="#cbe990" stroke="#cbe990"></path><path d="M787.4826914398,344.4253074936569L826.8799280142412,379.2914106231183L835.1364264870062,329.166449024342Z" fill="#c6e79b" stroke="#c6e79b"></path><path d="M835.1364264870062,329.166449024342L826.8799280142412,379.2914106231183L934.890424143523,331.2138885073364Z" fill="#b7e09b" stroke="#b7e09b"></path><path d="M934.890424143523,331.2138885073364L826.8799280142412,379.2914106231183L922.5071134138852,414.3123715929687Z" fill="#aedc8c" stroke="#aedc8c"></path><path d="M934.890424143523,331.2138885073364L922.5071134138852,414.3123715929687L1013.0252529121935,398.4401651378721Z" fill="#99d284" stroke="#99d284"></path><path d="M934.890424143523,331.2138885073364L1013.0252529121935,398.4401651378721L1051.9887255504727,338.6979219177738Z" fill="#8cca8c" stroke="#8cca8c"></path><path d="M1051.9887255504727,338.6979219177738L1013.0252529121935,398.4401651378721L1153.5681875562295,382.21412060782313Z" fill="#83ba7c" stroke="#83ba7c"></path><path d="M1051.9887255504727,338.6979219177738L1153.5681875562295,382.21412060782313L1096.2890736479312,321.29713520407677Z" fill="#80b484" stroke="#80b484"></path><path d="M1096.2890736479312,321.29713520407677L1153.5681875562295,382.21412060782313L1205.9169481415302,310.894330535084Z" fill="#80a983" stroke="#80a983"></path><path d="M1205.9169481415302,310.894330535084L1153.5681875562295,382.21412060782313L1239.2959268437698,416.8460511043668Z" fill="#809e6f" stroke="#809e6f"></path><path d="M1205.9169481415302,310.894330535084L1239.2959268437698,416.8460511043668L1304.521280969493,319.86628672108054Z" fill="#809372" stroke="#809372"></path><path d="M1304.521280969493,319.86628672108054L1239.2959268437698,416.8460511043668L1323.6354547273368,402.6268480019644Z" fill="#808b5f" stroke="#808b5f"></path><path d="M-54.97040896676481,377.3703570384532L-63.62705385312438,579.680535136722L-19.796978565864265,487.5085144350305Z" fill="#9e7a51" stroke="#9e7a51"></path><path d="M-54.97040896676481,377.3703570384532L-19.796978565864265,487.5085144350305L44.181362595409155,419.42331494763494Z" fill="#c0805b" stroke="#c0805b"></path><path d="M44.181362595409155,419.42331494763494L-19.796978565864265,487.5085144350305L52.80583663377911,465.9195238770917Z" fill="#bc8552" stroke="#bc8552"></path><path d="M44.181362595409155,419.42331494763494L52.80583663377911,465.9195238770917L150.43621794786304,427.48347429558635Z" fill="#d19259" stroke="#d19259"></path><path d="M150.43621794786304,427.48347429558635L52.80583663377911,465.9195238770917L125.44566264376044,490.9218356385827Z" fill="#cd9753" stroke="#cd9753"></path><path d="M150.43621794786304,427.48347429558635L125.44566264376044,490.9218356385827L213.3171435026452,480.53035017102957Z" fill="#d1a459" stroke="#d1a459"></path><path d="M150.43621794786304,427.48347429558635L213.3171435026452,480.53035017102957L208.9590605115518,406.9357827119529Z" fill="#e2ae63" stroke="#e2ae63"></path><path d="M208.9590605115518,406.9357827119529L213.3171435026452,480.53035017102957L311.3379652099684,409.1080349497497Z" fill="#eabd6c" stroke="#eabd6c"></path><path d="M311.3379652099684,409.1080349497497L213.3171435026452,480.53035017102957L320.77287705615163,490.7880063448101Z" fill="#dfc869" stroke="#dfc869"></path><path d="M311.3379652099684,409.1080349497497L320.77287705615163,490.7880063448101L382.5066547701135,401.9614509958774Z" fill="#ecd879" stroke="#ecd879"></path><path d="M382.5066547701135,401.9614509958774L320.77287705615163,490.7880063448101L418.0889218579978,503.97717996966094Z" fill="#dddf77" stroke="#dddf77"></path><path d="M382.5066547701135,401.9614509958774L418.0889218579978,503.97717996966094L508.4486505109817,427.0049744658172Z" fill="#e8ef88" stroke="#e8ef88"></path><path d="M508.4486505109817,427.0049744658172L418.0889218579978,503.97717996966094L475.8379031578079,511.0302353370935Z" fill="#d5ef8a" stroke="#d5ef8a"></path><path d="M508.4486505109817,427.0049744658172L475.8379031578079,511.0302353370935L523.1096140947193,556.1478507332504Z" fill="#cbef91" stroke="#cbef91"></path><path d="M508.4486505109817,427.0049744658172L523.1096140947193,556.1478507332504L611.7427093349397,511.1815049825236Z" fill="#cbf69c" stroke="#cbf69c"></path><path d="M508.4486505109817,427.0049744658172L611.7427093349397,511.1815049825236L586.2567835953087,404.0763609437272Z" fill="#e4fe9e" stroke="#e4fe9e"></path><path d="M586.2567835953087,404.0763609437272L611.7427093349397,511.1815049825236L666.9737945822999,425.15841828659177Z" fill="#dcfa92" stroke="#dcfa92"></path><path d="M666.9737945822999,425.15841828659177L611.7427093349397,511.1815049825236L698.2744088675827,472.0979371899739Z" fill="#caf585" stroke="#caf585"></path><path d="M666.9737945822999,425.15841828659177L698.2744088675827,472.0979371899739L782.8163511073217,400.9180058352649Z" fill="#cef285" stroke="#cef285"></path><path d="M782.8163511073217,400.9180058352649L698.2744088675827,472.0979371899739L747.9473060136661,495.1299307728186Z" fill="#beef79" stroke="#beef79"></path><path d="M782.8163511073217,400.9180058352649L747.9473060136661,495.1299307728186L825.756339551881,478.83797553833574Z" fill="#b2ea74" stroke="#b2ea74"></path><path d="M782.8163511073217,400.9180058352649L825.756339551881,478.83797553833574L826.8799280142412,379.2914106231183Z" fill="#bbe77f" stroke="#bbe77f"></path><path d="M826.8799280142412,379.2914106231183L825.756339551881,478.83797553833574L922.5071134138852,414.3123715929687Z" fill="#ace17c" stroke="#ace17c"></path><path d="M922.5071134138852,414.3123715929687L825.756339551881,478.83797553833574L920.7721589785069,475.19012994132936Z" fill="#94dd71" stroke="#94dd71"></path><path d="M922.5071134138852,414.3123715929687L920.7721589785069,475.19012994132936L1013.0252529121935,398.4401651378721Z" fill="#8ad274" stroke="#8ad274"></path><path d="M1013.0252529121935,398.4401651378721L920.7721589785069,475.19012994132936L1061.52534683235,482.8255706001073Z" fill="#72ca68" stroke="#72ca68"></path><path d="M1013.0252529121935,398.4401651378721L1061.52534683235,482.8255706001073L1153.5681875562295,382.21412060782313Z" fill="#76b969" stroke="#76b969"></path><path d="M1153.5681875562295,382.21412060782313L1061.52534683235,482.8255706001073L1102.1153944451362,517.1261332696304Z" fill="#62b25a" stroke="#62b25a"></path><path d="M1153.5681875562295,382.21412060782313L1102.1153944451362,517.1261332696304L1213.0325554031879,484.3456880003214Z" fill="#61a755" stroke="#61a755"></path><path d="M1153.5681875562295,382.21412060782313L1213.0325554031879,484.3456880003214L1239.2959268437698,416.8460511043668Z" fill="#709e59" stroke="#709e59"></path><path d="M1239.2959268437698,416.8460511043668L1213.0325554031879,484.3456880003214L1291.1491291830316,467.61955969501287Z" fill="#64944b" stroke="#64944b"></path><path d="M1239.2959268437698,416.8460511043668L1291.1491291830316,467.61955969501287L1323.6354547273368,402.6268480019644Z" fill="#708c4f" stroke="#708c4f"></path><path d="M1323.6354547273368,402.6268480019644L1291.1491291830316,467.61955969501287L1287.0677368808538,609.3362490925938Z" fill="#4f8042" stroke="#4f8042"></path><path d="M1323.6354547273368,402.6268480019644L1287.0677368808538,609.3362490925938L1299.5968108484522,693.6759438179433Z" fill="#1f6a38" stroke="#1f6a38"></path><path d="M-19.796978565864265,487.5085144350305L-63.62705385312438,579.680535136722L30.513311899267137,582.8843940747902Z" fill="#7a684a" stroke="#7a684a"></path><path d="M-19.796978565864265,487.5085144350305L30.513311899267137,582.8843940747902L52.80583663377911,465.9195238770917Z" fill="#9b784f" stroke="#9b784f"></path><path d="M52.80583663377911,465.9195238770917L30.513311899267137,582.8843940747902L125.44566264376044,490.9218356385827Z" fill="#a5824f" stroke="#a5824f"></path><path d="M125.44566264376044,490.9218356385827L30.513311899267137,582.8843940747902L132.01043200213462,573.0424571083859Z" fill="#957d4a" stroke="#957d4a"></path><path d="M125.44566264376044,490.9218356385827L132.01043200213462,573.0424571083859L205.88214066345245,578.265636912547Z" fill="#9f8d50" stroke="#9f8d50"></path><path d="M125.44566264376044,490.9218356385827L205.88214066345245,578.265636912547L213.3171435026452,480.53035017102957Z" fill="#b69e58" stroke="#b69e58"></path><path d="M213.3171435026452,480.53035017102957L205.88214066345245,578.265636912547L320.77287705615163,490.7880063448101Z" fill="#bcb161" stroke="#bcb161"></path><path d="M320.77287705615163,490.7880063448101L205.88214066345245,578.265636912547L336.34164344519377,566.8478388246149Z" fill="#abb462" stroke="#abb462"></path><path d="M320.77287705615163,490.7880063448101L336.34164344519377,566.8478388246149L418.0889218579978,503.97717996966094Z" fill="#bdcf71" stroke="#bdcf71"></path><path d="M418.0889218579978,503.97717996966094L336.34164344519377,566.8478388246149L412.7154607605189,590.902507645078Z" fill="#a8cb71" stroke="#a8cb71"></path><path d="M418.0889218579978,503.97717996966094L412.7154607605189,590.902507645078L475.8379031578079,511.0302353370935Z" fill="#b4dc7e" stroke="#b4dc7e"></path><path d="M475.8379031578079,511.0302353370935L412.7154607605189,590.902507645078L523.1096140947193,556.1478507332504Z" fill="#a9db83" stroke="#a9db83"></path><path d="M611.7427093349397,511.1815049825236L523.1096140947193,556.1478507332504L591.171175064519,555.926258568652Z" fill="#ade892" stroke="#ade892"></path><path d="M611.7427093349397,511.1815049825236L591.171175064519,555.926258568652L656.0045061958954,585.0456651952118Z" fill="#9ee286" stroke="#9ee286"></path><path d="M611.7427093349397,511.1815049825236L656.0045061958954,585.0456651952118L698.2744088675827,472.0979371899739Z" fill="#abe982" stroke="#abe982"></path><path d="M698.2744088675827,472.0979371899739L656.0045061958954,585.0456651952118L736.4878001343459,569.7305356152356Z" fill="#94de78" stroke="#94de78"></path><path d="M698.2744088675827,472.0979371899739L736.4878001343459,569.7305356152356L747.9473060136661,495.1299307728186Z" fill="#a0e477" stroke="#a0e477"></path><path d="M747.9473060136661,495.1299307728186L736.4878001343459,569.7305356152356L830.3737488761544,559.3716225586832Z" fill="#84d76d" stroke="#84d76d"></path><path d="M747.9473060136661,495.1299307728186L830.3737488761544,559.3716225586832L825.756339551881,478.83797553833574Z" fill="#8fdc70" stroke="#8fdc70"></path><path d="M825.756339551881,478.83797553833574L830.3737488761544,559.3716225586832L920.7721589785069,475.19012994132936Z" fill="#82d76e" stroke="#82d76e"></path><path d="M920.7721589785069,475.19012994132936L830.3737488761544,559.3716225586832L948.392888023518,559.4397222949192Z" fill="#64ca6a" stroke="#64ca6a"></path><path d="M920.7721589785069,475.19012994132936L948.392888023518,559.4397222949192L1061.52534683235,482.8255706001073Z" fill="#59c366" stroke="#59c366"></path><path d="M1061.52534683235,482.8255706001073L948.392888023518,559.4397222949192L1039.209813354537,556.1077640717849Z" fill="#41b45f" stroke="#41b45f"></path><path d="M1061.52534683235,482.8255706001073L1039.209813354537,556.1077640717849L1102.1153944451362,517.1261332696304Z" fill="#44ad5b" stroke="#44ad5b"></path><path d="M1102.1153944451362,517.1261332696304L1039.209813354537,556.1077640717849L1141.3132286025211,612.9506333218887Z" fill="#259951" stroke="#259951"></path><path d="M1102.1153944451362,517.1261332696304L1141.3132286025211,612.9506333218887L1189.8571326909587,609.0561066102237Z" fill="#188848" stroke="#188848"></path><path d="M1102.1153944451362,517.1261332696304L1189.8571326909587,609.0561066102237L1213.0325554031879,484.3456880003214Z" fill="#34924d" stroke="#34924d"></path><path d="M1213.0325554031879,484.3456880003214L1189.8571326909587,609.0561066102237L1287.0677368808538,609.3362490925938Z" fill="#207a41" stroke="#207a41"></path><path d="M1213.0325554031879,484.3456880003214L1287.0677368808538,609.3362490925938L1291.1491291830316,467.61955969501287Z" fill="#3f8244" stroke="#3f8244"></path><path d="M-63.62705385312438,579.680535136722L-57.11054826155305,703.4669459844008L30.513311899267137,582.8843940747902Z" fill="#544c3b" stroke="#544c3b"></path><path d="M30.513311899267137,582.8843940747902L-57.11054826155305,703.4669459844008L38.59741395805031,702.5434169406071Z" fill="#543c32" stroke="#543c32"></path><path d="M30.513311899267137,582.8843940747902L38.59741395805031,702.5434169406071L105.33881669864058,664.9953030142933Z" fill="#614d35" stroke="#614d35"></path><path d="M30.513311899267137,582.8843940747902L105.33881669864058,664.9953030142933L132.01043200213462,573.0424571083859Z" fill="#74663f" stroke="#74663f"></path><path d="M132.01043200213462,573.0424571083859L105.33881669864058,664.9953030142933L205.88214066345245,578.265636912547Z" fill="#7e7645" stroke="#7e7645"></path><path d="M205.88214066345245,578.265636912547L105.33881669864058,664.9953030142933L242.47808857820928,651.7913132999092Z" fill="#7c7543" stroke="#7c7543"></path><path d="M205.88214066345245,578.265636912547L242.47808857820928,651.7913132999092L336.34164344519377,566.8478388246149Z" fill="#8b9954" stroke="#8b9954"></path><path d="M336.34164344519377,566.8478388246149L242.47808857820928,651.7913132999092L310.0773670943454,649.9764853902161Z" fill="#869954" stroke="#869954"></path><path d="M336.34164344519377,566.8478388246149L310.0773670943454,649.9764853902161L412.7154607605189,590.902507645078Z" fill="#8db162" stroke="#8db162"></path><path d="M412.7154607605189,590.902507645078L310.0773670943454,649.9764853902161L413.56930224224925,680.9843319095671Z" fill="#82a65d" stroke="#82a65d"></path><path d="M412.7154607605189,590.902507645078L413.56930224224925,680.9843319095671L508.3529017260298,698.2974075805396Z" fill="#7fae67" stroke="#7fae67"></path><path d="M412.7154607605189,590.902507645078L508.3529017260298,698.2974075805396L523.1096140947193,556.1478507332504Z" fill="#8ac579" stroke="#8ac579"></path><path d="M523.1096140947193,556.1478507332504L508.3529017260298,698.2974075805396L604.73064805381,693.3088979450986Z" fill="#81bf80" stroke="#81bf80"></path><path d="M523.1096140947193,556.1478507332504L604.73064805381,693.3088979450986L591.171175064519,555.926258568652Z" fill="#8ad387" stroke="#8ad387"></path><path d="M591.171175064519,555.926258568652L604.73064805381,693.3088979450986L656.0045061958954,585.0456651952118Z" fill="#80cc7b" stroke="#80cc7b"></path><path d="M656.0045061958954,585.0456651952118L604.73064805381,693.3088979450986L685.802649683319,677.1191008435562Z" fill="#6fb86a" stroke="#6fb86a"></path><path d="M656.0045061958954,585.0456651952118L685.802649683319,677.1191008435562L754.1813064878806,652.0715220132843Z" fill="#69b965" stroke="#69b965"></path><path d="M656.0045061958954,585.0456651952118L754.1813064878806,652.0715220132843L736.4878001343459,569.7305356152356Z" fill="#6ec76a" stroke="#6ec76a"></path><path d="M736.4878001343459,569.7305356152356L754.1813064878806,652.0715220132843L830.3737488761544,559.3716225586832Z" fill="#63c564" stroke="#63c564"></path><path d="M830.3737488761544,559.3716225586832L754.1813064878806,652.0715220132843L832.3075320851058,646.7711346689612Z" fill="#53b65d" stroke="#53b65d"></path><path d="M830.3737488761544,559.3716225586832L832.3075320851058,646.7711346689612L948.392888023518,559.4397222949192Z" fill="#48bb62" stroke="#48bb62"></path><path d="M948.392888023518,559.4397222949192L832.3075320851058,646.7711346689612L965.2011204091832,652.9484510002658Z" fill="#31a657" stroke="#31a657"></path><path d="M948.392888023518,559.4397222949192L965.2011204091832,652.9484510002658L1039.209813354537,556.1077640717849Z" fill="#21a858" stroke="#21a858"></path><path d="M1039.209813354537,556.1077640717849L965.2011204091832,652.9484510002658L1009.9538744520396,662.3390386579558Z" fill="#14954e" stroke="#14954e"></path><path d="M1039.209813354537,556.1077640717849L1009.9538744520396,662.3390386579558L1123.7996652256697,646.2222470249981Z" fill="#0e8a49" stroke="#0e8a49"></path><path d="M1039.209813354537,556.1077640717849L1123.7996652256697,646.2222470249981L1141.3132286025211,612.9506333218887Z" fill="#0d8848" stroke="#0d8848"></path><path d="M1141.3132286025211,612.9506333218887L1123.7996652256697,646.2222470249981L1189.8571326909587,609.0561066102237Z" fill="#09753e" stroke="#09753e"></path><path d="M1189.8571326909587,609.0561066102237L1123.7996652256697,646.2222470249981L1193.764874045737,696.1342943273485Z" fill="#016636" stroke="#016636"></path><path d="M1189.8571326909587,609.0561066102237L1193.764874045737,696.1342943273485L1287.0677368808538,609.3362490925938Z" fill="#055f32" stroke="#055f32"></path><path d="M1287.0677368808538,609.3362490925938L1193.764874045737,696.1342943273485L1299.5968108484522,693.6759438179433Z" fill="#004b28" stroke="#004b28"></path><path d="M-57.11054826155305,703.4669459844008L-47.589456369169056,760.5541001725942L22.22969301044941,741.1113280942664Z" fill="#4d1b21" stroke="#4d1b21"></path><path d="M-57.11054826155305,703.4669459844008L22.22969301044941,741.1113280942664L38.59741395805031,702.5434169406071Z" fill="#532426" stroke="#532426"></path><path d="M38.59741395805031,702.5434169406071L22.22969301044941,741.1113280942664L144.0594921587035,763.9996140170842Z" fill="#622a22" stroke="#622a22"></path><path d="M38.59741395805031,702.5434169406071L144.0594921587035,763.9996140170842L105.33881669864058,664.9953030142933Z" fill="#693b27" stroke="#693b27"></path><path d="M105.33881669864058,664.9953030142933L144.0594921587035,763.9996140170842L242.47808857820928,651.7913132999092Z" fill="#735432" stroke="#735432"></path><path d="M242.47808857820928,651.7913132999092L144.0594921587035,763.9996140170842L248.82518537342548,791.2951587326825Z" fill="#794f2f" stroke="#794f2f"></path><path d="M242.47808857820928,651.7913132999092L248.82518537342548,791.2951587326825L310.0773670943454,649.9764853902161Z" fill="#7c703f" stroke="#7c703f"></path><path d="M310.0773670943454,649.9764853902161L248.82518537342548,791.2951587326825L329.7644274216145,786.5214767446741Z" fill="#7d6539" stroke="#7d6539"></path><path d="M310.0773670943454,649.9764853902161L329.7644274216145,786.5214767446741L413.56930224224925,680.9843319095671Z" fill="#7f8349" stroke="#7f8349"></path><path d="M413.56930224224925,680.9843319095671L329.7644274216145,786.5214767446741L388.0274926358834,779.3118441849947Z" fill="#7f7745" stroke="#7f7745"></path><path d="M413.56930224224925,680.9843319095671L388.0274926358834,779.3118441849947L484.8872882919386,767.0791965723038Z" fill="#7f8550" stroke="#7f8550"></path><path d="M413.56930224224925,680.9843319095671L484.8872882919386,767.0791965723038L508.3529017260298,698.2974075805396Z" fill="#7f985f" stroke="#7f985f"></path><path d="M508.3529017260298,698.2974075805396L484.8872882919386,767.0791965723038L608.0596411926672,735.5382426548749Z" fill="#80996a" stroke="#80996a"></path><path d="M508.3529017260298,698.2974075805396L608.0596411926672,735.5382426548749L604.73064805381,693.3088979450986Z" fill="#7ca56e" stroke="#7ca56e"></path><path d="M604.73064805381,693.3088979450986L608.0596411926672,735.5382426548749L685.802649683319,677.1191008435562Z" fill="#72a362" stroke="#72a362"></path><path d="M685.802649683319,677.1191008435562L608.0596411926672,735.5382426548749L683.7011111341417,754.1514618135989Z" fill="#6d9857" stroke="#6d9857"></path><path d="M685.802649683319,677.1191008435562L683.7011111341417,754.1514618135989L747.4847542354837,770.6215673871338Z" fill="#628f4e" stroke="#628f4e"></path><path d="M685.802649683319,677.1191008435562L747.4847542354837,770.6215673871338L754.1813064878806,652.0715220132843Z" fill="#5d9b52" stroke="#5d9b52"></path><path d="M754.1813064878806,652.0715220132843L747.4847542354837,770.6215673871338L832.3075320851058,646.7711346689612Z" fill="#519a4e" stroke="#519a4e"></path><path d="M832.3075320851058,646.7711346689612L747.4847542354837,770.6215673871338L870.430194362998,744.0380286192521Z" fill="#468845" stroke="#468845"></path><path d="M832.3075320851058,646.7711346689612L870.430194362998,744.0380286192521L936.1013198085129,737.0542030921206Z" fill="#348546" stroke="#348546"></path><path d="M832.3075320851058,646.7711346689612L936.1013198085129,737.0542030921206L965.2011204091832,652.9484510002658Z" fill="#298d4a" stroke="#298d4a"></path><path d="M965.2011204091832,652.9484510002658L936.1013198085129,737.0542030921206L1009.9538744520396,662.3390386579558Z" fill="#158144" stroke="#158144"></path><path d="M1009.9538744520396,662.3390386579558L936.1013198085129,737.0542030921206L1037.2669900534675,764.7407399537042Z" fill="#0d6d39" stroke="#0d6d39"></path><path d="M1009.9538744520396,662.3390386579558L1037.2669900534675,764.7407399537042L1134.1549032647163,739.9167006695643Z" fill="#055e31" stroke="#055e31"></path><path d="M1009.9538744520396,662.3390386579558L1134.1549032647163,739.9167006695643L1123.7996652256697,646.2222470249981Z" fill="#026837" stroke="#026837"></path><path d="M1123.7996652256697,646.2222470249981L1134.1549032647163,739.9167006695643L1193.764874045737,696.1342943273485Z" fill="#00572e" stroke="#00572e"></path><path d="M1193.764874045737,696.1342943273485L1134.1549032647163,739.9167006695643L1239.9876030301675,771.6330745769665Z" fill="#003c20" stroke="#003c20"></path><path d="M1193.764874045737,696.1342943273485L1239.9876030301675,771.6330745769665L1285.8891601022333,743.5989112593234Z" fill="#00301a" stroke="#00301a"></path><path d="M1193.764874045737,696.1342943273485L1285.8891601022333,743.5989112593234L1299.5968108484522,693.6759438179433Z" fill="#00371d" stroke="#00371d"></path><path d="M-47.589456369169056,760.5541001725942L248.82518537342548,791.2951587326825L144.0594921587035,763.9996140170842Z" fill="#6c251a" stroke="#6c251a"></path><path d="M-47.589456369169056,760.5541001725942L144.0594921587035,763.9996140170842L22.22969301044941,741.1113280942664Z" fill="#5c1b1d" stroke="#5c1b1d"></path><path d="M248.82518537342548,791.2951587326825L1239.9876030301675,771.6330745769665L329.7644274216145,786.5214767446741Z" fill="#768256" stroke="#768256"></path><path d="M329.7644274216145,786.5214767446741L1239.9876030301675,771.6330745769665L747.4847542354837,770.6215673871338Z" fill="#53763a" stroke="#53763a"></path><path d="M329.7644274216145,786.5214767446741L747.4847542354837,770.6215673871338L388.0274926358834,779.3118441849947Z" fill="#7f7f55" stroke="#7f7f55"></path><path d="M388.0274926358834,779.3118441849947L747.4847542354837,770.6215673871338L484.8872882919386,767.0791965723038Z" fill="#808963" stroke="#808963"></path><path d="M484.8872882919386,767.0791965723038L747.4847542354837,770.6215673871338L683.7011111341417,754.1514618135989Z" fill="#718853" stroke="#718853"></path><path d="M484.8872882919386,767.0791965723038L683.7011111341417,754.1514618135989L608.0596411926672,735.5382426548749Z" fill="#799060" stroke="#799060"></path><path d="M747.4847542354837,770.6215673871338L1239.9876030301675,771.6330745769665L1037.2669900534675,764.7407399537042Z" fill="#0b552d" stroke="#0b552d"></path><path d="M747.4847542354837,770.6215673871338L1037.2669900534675,764.7407399537042L870.430194362998,744.0380286192521Z" fill="#326e3a" stroke="#326e3a"></path><path d="M870.430194362998,744.0380286192521L1037.2669900534675,764.7407399537042L936.1013198085129,737.0542030921206Z" fill="#1c6937" stroke="#1c6937"></path><path d="M1037.2669900534675,764.7407399537042L1239.9876030301675,771.6330745769665L1134.1549032647163,739.9167006695643Z" fill="#003d20" stroke="#003d20"></path></g></svg>
